# xmcd CD database file
#
# Track frame offsets:
#	150
#	12872
#	29945
#	44297
#	58095
#	75215
#	93652
#	108672
#	124275
#	135785
#
# Disc length: 2026 seconds
#
# Revision: 2
# Processed by: cddbd v1.5.2PL0 Copyright (c) Steve Scherf et al.
# Submitted via: CDex 1.70beta2
#
DISCID=8007e80a
DTITLE=Various Artist - Billboard #1 Country Hits Of The 90's
DYEAR=2002
DGENRE=Country
TTITLE0=Holly Dunn - You Really Had Me Going
TTITLE1=Travis Tritt - Anymore
TTITLE2=Randy Travis - Look Heart, No Hands
TTITLE3=Tracy Lawrence - Alibis
TTITLE4=Neal McCoy - No Doubt About It
TTITLE5=Little Texas - My Love
TTITLE6=Jeff Carson - Not On Your Love
TTITLE7=Kevin Sharp - Nobody Knows
TTITLE8=Bryan White - So Much For Pretending
TTITLE9=Michael Peterson - From Here To Eternity
EXTD=YEAR: 2002
EXTT0=
EXTT1=
EXTT2=
EXTT3=
EXTT4=
EXTT5=
EXTT6=
EXTT7=
EXTT8=
EXTT9=
PLAYORDER=
